<mxfile host="app.diagrams.net" agent="Mozilla/5.0 (Windows NT 10.0; Win64; x64) AppleWebKit/537.36 (KHTML, like Gecko) Chrome/137.0.0.0 Safari/537.36" version="28.2.3">
  <diagram name="Página-1" id="4Aony1vFtUEJ5NVZptp8">
    <mxGraphModel dx="2013" dy="1872" grid="1" gridSize="10" guides="1" tooltips="1" connect="1" arrows="1" fold="1" page="1" pageScale="1" pageWidth="827" pageHeight="1169" math="0" shadow="0">
      <root>
        <mxCell id="0" />
        <mxCell id="1" parent="0" />
        <mxCell id="Tm68IXBXo0wMLcD9ASqz-12" style="edgeStyle=orthogonalEdgeStyle;rounded=0;orthogonalLoop=1;jettySize=auto;html=1;exitX=0;exitY=1;exitDx=0;exitDy=0;entryX=1;entryY=0.5;entryDx=0;entryDy=0;endArrow=none;endFill=0;" parent="1" source="Tm68IXBXo0wMLcD9ASqz-1" target="Tm68IXBXo0wMLcD9ASqz-4" edge="1">
          <mxGeometry relative="1" as="geometry">
            <Array as="points">
              <mxPoint x="-363" y="-150" />
            </Array>
          </mxGeometry>
        </mxCell>
        <mxCell id="Tm68IXBXo0wMLcD9ASqz-13" style="edgeStyle=orthogonalEdgeStyle;rounded=0;orthogonalLoop=1;jettySize=auto;html=1;exitX=0;exitY=0.5;exitDx=0;exitDy=0;entryX=1;entryY=0.5;entryDx=0;entryDy=0;endArrow=none;endFill=0;" parent="1" source="Tm68IXBXo0wMLcD9ASqz-1" target="Tm68IXBXo0wMLcD9ASqz-5" edge="1">
          <mxGeometry relative="1" as="geometry" />
        </mxCell>
        <mxCell id="Tm68IXBXo0wMLcD9ASqz-14" style="edgeStyle=orthogonalEdgeStyle;rounded=0;orthogonalLoop=1;jettySize=auto;html=1;exitX=0;exitY=0;exitDx=0;exitDy=0;entryX=0.5;entryY=1;entryDx=0;entryDy=0;endArrow=none;endFill=0;" parent="1" source="Tm68IXBXo0wMLcD9ASqz-1" target="Tm68IXBXo0wMLcD9ASqz-7" edge="1">
          <mxGeometry relative="1" as="geometry" />
        </mxCell>
        <mxCell id="Tm68IXBXo0wMLcD9ASqz-15" style="edgeStyle=orthogonalEdgeStyle;rounded=0;orthogonalLoop=1;jettySize=auto;html=1;exitX=0.5;exitY=0;exitDx=0;exitDy=0;entryX=0.5;entryY=1;entryDx=0;entryDy=0;endArrow=none;endFill=0;" parent="1" source="Tm68IXBXo0wMLcD9ASqz-1" target="Tm68IXBXo0wMLcD9ASqz-6" edge="1">
          <mxGeometry relative="1" as="geometry" />
        </mxCell>
        <mxCell id="Tm68IXBXo0wMLcD9ASqz-16" style="edgeStyle=orthogonalEdgeStyle;rounded=0;orthogonalLoop=1;jettySize=auto;html=1;exitX=1;exitY=0;exitDx=0;exitDy=0;entryX=0;entryY=1;entryDx=0;entryDy=0;endArrow=none;endFill=0;" parent="1" source="Tm68IXBXo0wMLcD9ASqz-1" target="Tm68IXBXo0wMLcD9ASqz-8" edge="1">
          <mxGeometry relative="1" as="geometry" />
        </mxCell>
        <mxCell id="Tm68IXBXo0wMLcD9ASqz-67" style="edgeStyle=orthogonalEdgeStyle;shape=connector;rounded=0;orthogonalLoop=1;jettySize=auto;html=1;exitX=0.75;exitY=1;exitDx=0;exitDy=0;entryX=1;entryY=0;entryDx=0;entryDy=0;strokeColor=default;align=center;verticalAlign=middle;fontFamily=Helvetica;fontSize=11;fontColor=default;labelBackgroundColor=default;endArrow=none;endFill=0;" parent="1" source="Tm68IXBXo0wMLcD9ASqz-84" target="Tm68IXBXo0wMLcD9ASqz-65" edge="1">
          <mxGeometry relative="1" as="geometry" />
        </mxCell>
        <mxCell id="Tm68IXBXo0wMLcD9ASqz-70" style="edgeStyle=orthogonalEdgeStyle;shape=link;rounded=0;orthogonalLoop=1;jettySize=auto;html=1;exitX=0.25;exitY=1;exitDx=0;exitDy=0;entryX=0;entryY=0;entryDx=0;entryDy=0;strokeColor=default;align=center;verticalAlign=middle;fontFamily=Helvetica;fontSize=11;fontColor=default;labelBackgroundColor=default;endArrow=none;endFill=0;" parent="1" source="Tm68IXBXo0wMLcD9ASqz-83" target="Tm68IXBXo0wMLcD9ASqz-65" edge="1">
          <mxGeometry relative="1" as="geometry" />
        </mxCell>
        <mxCell id="Tm68IXBXo0wMLcD9ASqz-72" style="edgeStyle=orthogonalEdgeStyle;shape=link;rounded=0;orthogonalLoop=1;jettySize=auto;html=1;exitX=1;exitY=1;exitDx=0;exitDy=0;entryX=1;entryY=0;entryDx=0;entryDy=0;strokeColor=default;align=center;verticalAlign=middle;fontFamily=Helvetica;fontSize=11;fontColor=default;labelBackgroundColor=default;endArrow=none;endFill=0;" parent="1" source="i7obDoPKxP2swXrJQPVg-1" target="Tm68IXBXo0wMLcD9ASqz-71" edge="1">
          <mxGeometry relative="1" as="geometry" />
        </mxCell>
        <mxCell id="Tm68IXBXo0wMLcD9ASqz-75" style="edgeStyle=orthogonalEdgeStyle;rounded=0;orthogonalLoop=1;jettySize=auto;html=1;exitX=1;exitY=0.75;exitDx=0;exitDy=0;entryX=0.5;entryY=0;entryDx=0;entryDy=0;strokeColor=default;align=center;verticalAlign=middle;fontFamily=Helvetica;fontSize=11;fontColor=default;labelBackgroundColor=default;endArrow=none;endFill=0;" parent="1" source="i7obDoPKxP2swXrJQPVg-3" target="Tm68IXBXo0wMLcD9ASqz-74" edge="1">
          <mxGeometry relative="1" as="geometry" />
        </mxCell>
        <mxCell id="i7obDoPKxP2swXrJQPVg-15" style="edgeStyle=orthogonalEdgeStyle;rounded=0;orthogonalLoop=1;jettySize=auto;html=1;exitX=0.75;exitY=0;exitDx=0;exitDy=0;entryX=0;entryY=0.5;entryDx=0;entryDy=0;endArrow=none;endFill=0;" edge="1" parent="1" source="i7obDoPKxP2swXrJQPVg-17" target="Tm68IXBXo0wMLcD9ASqz-78">
          <mxGeometry relative="1" as="geometry">
            <Array as="points" />
          </mxGeometry>
        </mxCell>
        <mxCell id="i7obDoPKxP2swXrJQPVg-22" style="edgeStyle=orthogonalEdgeStyle;shape=link;rounded=0;orthogonalLoop=1;jettySize=auto;html=1;exitX=0.75;exitY=0;exitDx=0;exitDy=0;entryX=0;entryY=0.5;entryDx=0;entryDy=0;strokeColor=default;align=center;verticalAlign=middle;fontFamily=Helvetica;fontSize=11;fontColor=default;labelBackgroundColor=default;endArrow=none;endFill=0;" edge="1" parent="1" source="i7obDoPKxP2swXrJQPVg-24" target="i7obDoPKxP2swXrJQPVg-21">
          <mxGeometry relative="1" as="geometry">
            <Array as="points">
              <mxPoint x="-150" y="-445" />
            </Array>
          </mxGeometry>
        </mxCell>
        <mxCell id="Tm68IXBXo0wMLcD9ASqz-1" value="FUNCIONÁRIO" style="whiteSpace=wrap;html=1;align=center;" parent="1" vertex="1">
          <mxGeometry x="-380" y="-220" width="100" height="40" as="geometry" />
        </mxCell>
        <mxCell id="Tm68IXBXo0wMLcD9ASqz-20" style="edgeStyle=orthogonalEdgeStyle;shape=connector;rounded=0;orthogonalLoop=1;jettySize=auto;html=1;exitX=0;exitY=0;exitDx=0;exitDy=0;entryX=0.5;entryY=1;entryDx=0;entryDy=0;strokeColor=default;align=center;verticalAlign=middle;fontFamily=Helvetica;fontSize=11;fontColor=default;labelBackgroundColor=default;endArrow=none;endFill=0;" parent="1" source="Tm68IXBXo0wMLcD9ASqz-2" target="Tm68IXBXo0wMLcD9ASqz-18" edge="1">
          <mxGeometry relative="1" as="geometry" />
        </mxCell>
        <mxCell id="Tm68IXBXo0wMLcD9ASqz-21" style="edgeStyle=orthogonalEdgeStyle;shape=connector;rounded=0;orthogonalLoop=1;jettySize=auto;html=1;exitX=0;exitY=1;exitDx=0;exitDy=0;entryX=1;entryY=0.5;entryDx=0;entryDy=0;strokeColor=default;align=center;verticalAlign=middle;fontFamily=Helvetica;fontSize=11;fontColor=default;labelBackgroundColor=default;endArrow=none;endFill=0;" parent="1" source="Tm68IXBXo0wMLcD9ASqz-2" target="Tm68IXBXo0wMLcD9ASqz-19" edge="1">
          <mxGeometry relative="1" as="geometry" />
        </mxCell>
        <mxCell id="Tm68IXBXo0wMLcD9ASqz-73" style="edgeStyle=orthogonalEdgeStyle;shape=link;rounded=0;orthogonalLoop=1;jettySize=auto;html=1;exitX=0.5;exitY=0;exitDx=0;exitDy=0;entryX=0.5;entryY=1;entryDx=0;entryDy=0;strokeColor=default;align=center;verticalAlign=middle;fontFamily=Helvetica;fontSize=11;fontColor=default;labelBackgroundColor=default;endArrow=none;endFill=0;" parent="1" source="i7obDoPKxP2swXrJQPVg-2" target="Tm68IXBXo0wMLcD9ASqz-71" edge="1">
          <mxGeometry relative="1" as="geometry" />
        </mxCell>
        <mxCell id="Tm68IXBXo0wMLcD9ASqz-80" style="edgeStyle=orthogonalEdgeStyle;shape=connector;rounded=0;orthogonalLoop=1;jettySize=auto;html=1;exitX=1;exitY=1;exitDx=0;exitDy=0;entryX=0;entryY=0.5;entryDx=0;entryDy=0;strokeColor=default;align=center;verticalAlign=middle;fontFamily=Helvetica;fontSize=11;fontColor=default;labelBackgroundColor=default;endArrow=none;endFill=0;" parent="1" source="i7obDoPKxP2swXrJQPVg-5" target="Tm68IXBXo0wMLcD9ASqz-77" edge="1">
          <mxGeometry relative="1" as="geometry">
            <Array as="points" />
          </mxGeometry>
        </mxCell>
        <mxCell id="Tm68IXBXo0wMLcD9ASqz-2" value="DEPARTAMENTO" style="whiteSpace=wrap;html=1;align=center;" parent="1" vertex="1">
          <mxGeometry x="-387" y="170" width="100" height="40" as="geometry" />
        </mxCell>
        <mxCell id="Tm68IXBXo0wMLcD9ASqz-25" style="edgeStyle=orthogonalEdgeStyle;shape=connector;rounded=0;orthogonalLoop=1;jettySize=auto;html=1;exitX=1;exitY=0.5;exitDx=0;exitDy=0;entryX=0;entryY=0.5;entryDx=0;entryDy=0;strokeColor=default;align=center;verticalAlign=middle;fontFamily=Helvetica;fontSize=11;fontColor=default;labelBackgroundColor=default;endArrow=none;endFill=0;" parent="1" source="Tm68IXBXo0wMLcD9ASqz-3" target="Tm68IXBXo0wMLcD9ASqz-23" edge="1">
          <mxGeometry relative="1" as="geometry" />
        </mxCell>
        <mxCell id="i7obDoPKxP2swXrJQPVg-16" style="edgeStyle=orthogonalEdgeStyle;rounded=0;orthogonalLoop=1;jettySize=auto;html=1;exitX=0.25;exitY=0;exitDx=0;exitDy=0;entryX=1;entryY=0.5;entryDx=0;entryDy=0;endArrow=none;endFill=0;shape=link;" edge="1" parent="1" source="i7obDoPKxP2swXrJQPVg-19" target="Tm68IXBXo0wMLcD9ASqz-78">
          <mxGeometry relative="1" as="geometry" />
        </mxCell>
        <mxCell id="Tm68IXBXo0wMLcD9ASqz-3" value="PROJETO" style="whiteSpace=wrap;html=1;align=center;" parent="1" vertex="1">
          <mxGeometry x="90" y="-180" width="100" height="40" as="geometry" />
        </mxCell>
        <mxCell id="Tm68IXBXo0wMLcD9ASqz-4" value="NDeCC" style="ellipse;whiteSpace=wrap;html=1;align=center;" parent="1" vertex="1">
          <mxGeometry x="-550" y="-170" width="100" height="40" as="geometry" />
        </mxCell>
        <mxCell id="Tm68IXBXo0wMLcD9ASqz-5" value="Email ?" style="ellipse;whiteSpace=wrap;html=1;align=center;" parent="1" vertex="1">
          <mxGeometry x="-550" y="-215" width="100" height="40" as="geometry" />
        </mxCell>
        <mxCell id="Tm68IXBXo0wMLcD9ASqz-6" value="Nome" style="ellipse;whiteSpace=wrap;html=1;align=center;" parent="1" vertex="1">
          <mxGeometry x="-363" y="-305" width="100" height="40" as="geometry" />
        </mxCell>
        <mxCell id="Tm68IXBXo0wMLcD9ASqz-7" value="DataDeNascimento" style="ellipse;whiteSpace=wrap;html=1;align=center;" parent="1" vertex="1">
          <mxGeometry x="-550" y="-280" width="100" height="40" as="geometry" />
        </mxCell>
        <mxCell id="Tm68IXBXo0wMLcD9ASqz-8" value="Salario" style="ellipse;whiteSpace=wrap;html=1;align=center;" parent="1" vertex="1">
          <mxGeometry x="-200" y="-305" width="100" height="40" as="geometry" />
        </mxCell>
        <mxCell id="Tm68IXBXo0wMLcD9ASqz-11" style="edgeStyle=orthogonalEdgeStyle;rounded=0;orthogonalLoop=1;jettySize=auto;html=1;exitX=0;exitY=0.5;exitDx=0;exitDy=0;entryX=1;entryY=0.5;entryDx=0;entryDy=0;endArrow=none;endFill=0;" parent="1" source="Tm68IXBXo0wMLcD9ASqz-10" target="Tm68IXBXo0wMLcD9ASqz-1" edge="1">
          <mxGeometry relative="1" as="geometry" />
        </mxCell>
        <mxCell id="Tm68IXBXo0wMLcD9ASqz-10" value="HorasSemProg" style="ellipse;whiteSpace=wrap;html=1;align=center;" parent="1" vertex="1">
          <mxGeometry x="-190" y="-240" width="100" height="40" as="geometry" />
        </mxCell>
        <mxCell id="Tm68IXBXo0wMLcD9ASqz-18" value="Nome" style="ellipse;whiteSpace=wrap;html=1;align=center;fontStyle=4;fontFamily=Helvetica;fontSize=11;fontColor=default;labelBackgroundColor=default;" parent="1" vertex="1">
          <mxGeometry x="-440" y="70" width="100" height="40" as="geometry" />
        </mxCell>
        <mxCell id="Tm68IXBXo0wMLcD9ASqz-36" style="edgeStyle=orthogonalEdgeStyle;shape=connector;rounded=0;orthogonalLoop=1;jettySize=auto;html=1;exitX=0.5;exitY=1;exitDx=0;exitDy=0;entryX=0.5;entryY=0;entryDx=0;entryDy=0;strokeColor=default;align=center;verticalAlign=middle;fontFamily=Helvetica;fontSize=11;fontColor=default;labelBackgroundColor=default;endArrow=none;endFill=0;" parent="1" source="Tm68IXBXo0wMLcD9ASqz-19" target="Tm68IXBXo0wMLcD9ASqz-35" edge="1">
          <mxGeometry relative="1" as="geometry" />
        </mxCell>
        <mxCell id="Tm68IXBXo0wMLcD9ASqz-37" style="edgeStyle=orthogonalEdgeStyle;shape=connector;rounded=0;orthogonalLoop=1;jettySize=auto;html=1;exitX=0;exitY=1;exitDx=0;exitDy=0;entryX=1;entryY=0.5;entryDx=0;entryDy=0;strokeColor=default;align=center;verticalAlign=middle;fontFamily=Helvetica;fontSize=11;fontColor=default;labelBackgroundColor=default;endArrow=none;endFill=0;" parent="1" source="Tm68IXBXo0wMLcD9ASqz-19" target="Tm68IXBXo0wMLcD9ASqz-34" edge="1">
          <mxGeometry relative="1" as="geometry" />
        </mxCell>
        <mxCell id="Tm68IXBXo0wMLcD9ASqz-38" style="edgeStyle=orthogonalEdgeStyle;shape=connector;rounded=0;orthogonalLoop=1;jettySize=auto;html=1;exitX=0;exitY=0.5;exitDx=0;exitDy=0;entryX=0.5;entryY=0;entryDx=0;entryDy=0;strokeColor=default;align=center;verticalAlign=middle;fontFamily=Helvetica;fontSize=11;fontColor=default;labelBackgroundColor=default;endArrow=none;endFill=0;" parent="1" source="Tm68IXBXo0wMLcD9ASqz-19" target="Tm68IXBXo0wMLcD9ASqz-33" edge="1">
          <mxGeometry relative="1" as="geometry" />
        </mxCell>
        <mxCell id="Tm68IXBXo0wMLcD9ASqz-64" style="edgeStyle=orthogonalEdgeStyle;shape=connector;rounded=0;orthogonalLoop=1;jettySize=auto;html=1;exitX=1;exitY=1;exitDx=0;exitDy=0;entryX=0.5;entryY=0;entryDx=0;entryDy=0;strokeColor=default;align=center;verticalAlign=middle;fontFamily=Helvetica;fontSize=11;fontColor=default;labelBackgroundColor=default;endArrow=none;endFill=0;" parent="1" source="Tm68IXBXo0wMLcD9ASqz-19" target="Tm68IXBXo0wMLcD9ASqz-63" edge="1">
          <mxGeometry relative="1" as="geometry" />
        </mxCell>
        <mxCell id="Tm68IXBXo0wMLcD9ASqz-19" value="localizações" style="ellipse;shape=doubleEllipse;margin=3;whiteSpace=wrap;html=1;align=center;fontFamily=Helvetica;fontSize=11;fontColor=default;labelBackgroundColor=default;" parent="1" vertex="1">
          <mxGeometry x="-387" y="250" width="100" height="40" as="geometry" />
        </mxCell>
        <mxCell id="Tm68IXBXo0wMLcD9ASqz-24" style="edgeStyle=orthogonalEdgeStyle;shape=connector;rounded=0;orthogonalLoop=1;jettySize=auto;html=1;exitX=0;exitY=0.5;exitDx=0;exitDy=0;entryX=1;entryY=0;entryDx=0;entryDy=0;strokeColor=default;align=center;verticalAlign=middle;fontFamily=Helvetica;fontSize=11;fontColor=default;labelBackgroundColor=default;endArrow=none;endFill=0;" parent="1" source="Tm68IXBXo0wMLcD9ASqz-22" target="Tm68IXBXo0wMLcD9ASqz-3" edge="1">
          <mxGeometry relative="1" as="geometry" />
        </mxCell>
        <mxCell id="Tm68IXBXo0wMLcD9ASqz-22" value="Nome" style="ellipse;whiteSpace=wrap;html=1;align=center;fontStyle=4;fontFamily=Helvetica;fontSize=11;fontColor=default;labelBackgroundColor=default;" parent="1" vertex="1">
          <mxGeometry x="230" y="-230" width="100" height="40" as="geometry" />
        </mxCell>
        <mxCell id="Tm68IXBXo0wMLcD9ASqz-23" value="DataInicio" style="ellipse;whiteSpace=wrap;html=1;align=center;fontFamily=Helvetica;fontSize=11;fontColor=default;labelBackgroundColor=default;" parent="1" vertex="1">
          <mxGeometry x="230" y="-180" width="100" height="40" as="geometry" />
        </mxCell>
        <mxCell id="Tm68IXBXo0wMLcD9ASqz-31" style="edgeStyle=orthogonalEdgeStyle;shape=connector;rounded=0;orthogonalLoop=1;jettySize=auto;html=1;exitX=0;exitY=0.5;exitDx=0;exitDy=0;entryX=1;entryY=1;entryDx=0;entryDy=0;strokeColor=default;align=center;verticalAlign=middle;fontFamily=Helvetica;fontSize=11;fontColor=default;labelBackgroundColor=default;endArrow=none;endFill=0;" parent="1" source="Tm68IXBXo0wMLcD9ASqz-30" target="Tm68IXBXo0wMLcD9ASqz-3" edge="1">
          <mxGeometry relative="1" as="geometry" />
        </mxCell>
        <mxCell id="Tm68IXBXo0wMLcD9ASqz-30" value="DataFim" style="ellipse;whiteSpace=wrap;html=1;align=center;fontFamily=Helvetica;fontSize=11;fontColor=default;labelBackgroundColor=default;" parent="1" vertex="1">
          <mxGeometry x="230" y="-130" width="100" height="40" as="geometry" />
        </mxCell>
        <mxCell id="Tm68IXBXo0wMLcD9ASqz-39" style="edgeStyle=orthogonalEdgeStyle;shape=connector;rounded=0;orthogonalLoop=1;jettySize=auto;html=1;exitX=1;exitY=0.5;exitDx=0;exitDy=0;entryX=0;entryY=0;entryDx=0;entryDy=0;strokeColor=default;align=center;verticalAlign=middle;fontFamily=Helvetica;fontSize=11;fontColor=default;labelBackgroundColor=default;endArrow=none;endFill=0;" parent="1" source="Tm68IXBXo0wMLcD9ASqz-32" target="Tm68IXBXo0wMLcD9ASqz-19" edge="1">
          <mxGeometry relative="1" as="geometry" />
        </mxCell>
        <mxCell id="Tm68IXBXo0wMLcD9ASqz-32" value="Rua" style="ellipse;whiteSpace=wrap;html=1;align=center;fontFamily=Helvetica;fontSize=11;fontColor=default;labelBackgroundColor=default;" parent="1" vertex="1">
          <mxGeometry x="-537" y="210" width="100" height="40" as="geometry" />
        </mxCell>
        <mxCell id="Tm68IXBXo0wMLcD9ASqz-33" value="Localidade" style="ellipse;whiteSpace=wrap;html=1;align=center;fontFamily=Helvetica;fontSize=11;fontColor=default;labelBackgroundColor=default;" parent="1" vertex="1">
          <mxGeometry x="-540" y="280" width="100" height="40" as="geometry" />
        </mxCell>
        <mxCell id="Tm68IXBXo0wMLcD9ASqz-34" value="Num" style="ellipse;whiteSpace=wrap;html=1;align=center;fontFamily=Helvetica;fontSize=11;fontColor=default;labelBackgroundColor=default;" parent="1" vertex="1">
          <mxGeometry x="-537" y="330" width="100" height="40" as="geometry" />
        </mxCell>
        <mxCell id="Tm68IXBXo0wMLcD9ASqz-35" value="Andar ?" style="ellipse;whiteSpace=wrap;html=1;align=center;fontFamily=Helvetica;fontSize=11;fontColor=default;labelBackgroundColor=default;" parent="1" vertex="1">
          <mxGeometry x="-387" y="330" width="100" height="40" as="geometry" />
        </mxCell>
        <mxCell id="Tm68IXBXo0wMLcD9ASqz-63" value="CodPostal" style="ellipse;whiteSpace=wrap;html=1;align=center;fontFamily=Helvetica;fontSize=11;fontColor=default;labelBackgroundColor=default;" parent="1" vertex="1">
          <mxGeometry x="-277" y="330" width="100" height="40" as="geometry" />
        </mxCell>
        <mxCell id="Tm68IXBXo0wMLcD9ASqz-65" value="SUPERVISIONA" style="shape=rhombus;perimeter=rhombusPerimeter;whiteSpace=wrap;html=1;align=center;fontFamily=Helvetica;fontSize=11;fontColor=default;labelBackgroundColor=default;" parent="1" vertex="1">
          <mxGeometry x="-397" y="-100" width="120" height="60" as="geometry" />
        </mxCell>
        <mxCell id="Tm68IXBXo0wMLcD9ASqz-71" value="TRABALHA_PARA" style="shape=rhombus;perimeter=rhombusPerimeter;whiteSpace=wrap;html=1;align=center;fontFamily=Helvetica;fontSize=11;fontColor=default;labelBackgroundColor=default;" parent="1" vertex="1">
          <mxGeometry x="-320" width="120" height="60" as="geometry" />
        </mxCell>
        <mxCell id="Tm68IXBXo0wMLcD9ASqz-76" style="edgeStyle=orthogonalEdgeStyle;shape=link;rounded=0;orthogonalLoop=1;jettySize=auto;html=1;exitX=0.5;exitY=1;exitDx=0;exitDy=0;entryX=1;entryY=0.5;entryDx=0;entryDy=0;strokeColor=default;align=center;verticalAlign=middle;fontFamily=Helvetica;fontSize=11;fontColor=default;labelBackgroundColor=default;endArrow=none;endFill=0;" parent="1" source="i7obDoPKxP2swXrJQPVg-4" target="Tm68IXBXo0wMLcD9ASqz-2" edge="1">
          <mxGeometry relative="1" as="geometry" />
        </mxCell>
        <mxCell id="Tm68IXBXo0wMLcD9ASqz-74" value="GERE" style="shape=rhombus;perimeter=rhombusPerimeter;whiteSpace=wrap;html=1;align=center;fontFamily=Helvetica;fontSize=11;fontColor=default;labelBackgroundColor=default;" parent="1" vertex="1">
          <mxGeometry x="-180" width="120" height="60" as="geometry" />
        </mxCell>
        <mxCell id="Tm68IXBXo0wMLcD9ASqz-81" style="edgeStyle=orthogonalEdgeStyle;shape=link;rounded=0;orthogonalLoop=1;jettySize=auto;html=1;exitX=0.5;exitY=0;exitDx=0;exitDy=0;entryX=0;entryY=0.5;entryDx=0;entryDy=0;strokeColor=default;align=center;verticalAlign=middle;fontFamily=Helvetica;fontSize=11;fontColor=default;labelBackgroundColor=default;endArrow=none;endFill=0;width=4;" parent="1" source="i7obDoPKxP2swXrJQPVg-6" target="Tm68IXBXo0wMLcD9ASqz-3" edge="1">
          <mxGeometry relative="1" as="geometry" />
        </mxCell>
        <mxCell id="Tm68IXBXo0wMLcD9ASqz-77" value="CONTROLA" style="shape=rhombus;perimeter=rhombusPerimeter;whiteSpace=wrap;html=1;align=center;fontFamily=Helvetica;fontSize=11;fontColor=default;labelBackgroundColor=default;" parent="1" vertex="1">
          <mxGeometry x="-40" y="110" width="120" height="60" as="geometry" />
        </mxCell>
        <mxCell id="Tm68IXBXo0wMLcD9ASqz-78" value="DIRIGE" style="shape=rhombus;perimeter=rhombusPerimeter;whiteSpace=wrap;html=1;align=center;fontFamily=Helvetica;fontSize=11;fontColor=default;labelBackgroundColor=default;" parent="1" vertex="1">
          <mxGeometry x="-150" y="-365" width="120" height="60" as="geometry" />
        </mxCell>
        <mxCell id="i7obDoPKxP2swXrJQPVg-7" value="" style="edgeStyle=orthogonalEdgeStyle;shape=link;rounded=0;orthogonalLoop=1;jettySize=auto;html=1;exitX=0.5;exitY=0;exitDx=0;exitDy=0;entryX=0;entryY=0.5;entryDx=0;entryDy=0;strokeColor=default;align=center;verticalAlign=middle;fontFamily=Helvetica;fontSize=11;fontColor=default;labelBackgroundColor=default;endArrow=none;endFill=0;width=4;" edge="1" parent="1" source="Tm68IXBXo0wMLcD9ASqz-77" target="i7obDoPKxP2swXrJQPVg-6">
          <mxGeometry relative="1" as="geometry">
            <mxPoint x="20" y="110" as="sourcePoint" />
            <mxPoint x="90" y="-160" as="targetPoint" />
          </mxGeometry>
        </mxCell>
        <mxCell id="i7obDoPKxP2swXrJQPVg-6" value="N" style="text;html=1;align=center;verticalAlign=middle;resizable=0;points=[];autosize=1;strokeColor=default;fillColor=none;fontFamily=Helvetica;fontSize=11;fontColor=default;labelBackgroundColor=default;" vertex="1" parent="1">
          <mxGeometry x="40" y="40" width="30" height="30" as="geometry" />
        </mxCell>
        <mxCell id="i7obDoPKxP2swXrJQPVg-8" value="" style="edgeStyle=orthogonalEdgeStyle;shape=connector;rounded=0;orthogonalLoop=1;jettySize=auto;html=1;exitX=1;exitY=1;exitDx=0;exitDy=0;entryX=0;entryY=0.5;entryDx=0;entryDy=0;strokeColor=default;align=center;verticalAlign=middle;fontFamily=Helvetica;fontSize=11;fontColor=default;labelBackgroundColor=default;endArrow=none;endFill=0;" edge="1" parent="1" source="Tm68IXBXo0wMLcD9ASqz-2" target="i7obDoPKxP2swXrJQPVg-5">
          <mxGeometry relative="1" as="geometry">
            <Array as="points">
              <mxPoint x="-100" y="210" />
              <mxPoint x="-100" y="140" />
            </Array>
            <mxPoint x="-287" y="210" as="sourcePoint" />
            <mxPoint x="-40" y="140" as="targetPoint" />
          </mxGeometry>
        </mxCell>
        <mxCell id="i7obDoPKxP2swXrJQPVg-5" value="1" style="text;html=1;align=center;verticalAlign=middle;resizable=0;points=[];autosize=1;strokeColor=default;fillColor=none;fontFamily=Helvetica;fontSize=11;fontColor=default;labelBackgroundColor=default;" vertex="1" parent="1">
          <mxGeometry x="-90" y="125" width="30" height="30" as="geometry" />
        </mxCell>
        <mxCell id="i7obDoPKxP2swXrJQPVg-9" value="" style="edgeStyle=orthogonalEdgeStyle;shape=link;rounded=0;orthogonalLoop=1;jettySize=auto;html=1;exitX=0.5;exitY=1;exitDx=0;exitDy=0;entryX=1;entryY=0.5;entryDx=0;entryDy=0;strokeColor=default;align=center;verticalAlign=middle;fontFamily=Helvetica;fontSize=11;fontColor=default;labelBackgroundColor=default;endArrow=none;endFill=0;" edge="1" parent="1" source="Tm68IXBXo0wMLcD9ASqz-74" target="i7obDoPKxP2swXrJQPVg-4">
          <mxGeometry relative="1" as="geometry">
            <mxPoint x="-120" y="60" as="sourcePoint" />
            <mxPoint x="-287" y="190" as="targetPoint" />
          </mxGeometry>
        </mxCell>
        <mxCell id="i7obDoPKxP2swXrJQPVg-4" value="1" style="text;html=1;align=center;verticalAlign=middle;resizable=0;points=[];autosize=1;strokeColor=default;fillColor=none;fontFamily=Helvetica;fontSize=11;fontColor=default;labelBackgroundColor=default;" vertex="1" parent="1">
          <mxGeometry x="-135" y="70" width="30" height="30" as="geometry" />
        </mxCell>
        <mxCell id="i7obDoPKxP2swXrJQPVg-10" value="" style="edgeStyle=orthogonalEdgeStyle;rounded=0;orthogonalLoop=1;jettySize=auto;html=1;exitX=1;exitY=0.75;exitDx=0;exitDy=0;entryX=0.5;entryY=0;entryDx=0;entryDy=0;strokeColor=default;align=center;verticalAlign=middle;fontFamily=Helvetica;fontSize=11;fontColor=default;labelBackgroundColor=default;endArrow=none;endFill=0;" edge="1" parent="1" source="Tm68IXBXo0wMLcD9ASqz-1" target="i7obDoPKxP2swXrJQPVg-3">
          <mxGeometry relative="1" as="geometry">
            <mxPoint x="-263" y="-170" as="sourcePoint" />
            <mxPoint x="-120" as="targetPoint" />
          </mxGeometry>
        </mxCell>
        <mxCell id="i7obDoPKxP2swXrJQPVg-3" value="1" style="text;html=1;align=center;verticalAlign=middle;resizable=0;points=[];autosize=1;strokeColor=default;fillColor=none;fontFamily=Helvetica;fontSize=11;fontColor=default;labelBackgroundColor=default;" vertex="1" parent="1">
          <mxGeometry x="-135" y="-60" width="30" height="30" as="geometry" />
        </mxCell>
        <mxCell id="i7obDoPKxP2swXrJQPVg-11" value="" style="edgeStyle=orthogonalEdgeStyle;shape=link;rounded=0;orthogonalLoop=1;jettySize=auto;html=1;exitX=1;exitY=1;exitDx=0;exitDy=0;entryX=1;entryY=0;entryDx=0;entryDy=0;strokeColor=default;align=center;verticalAlign=middle;fontFamily=Helvetica;fontSize=11;fontColor=default;labelBackgroundColor=default;endArrow=none;endFill=0;" edge="1" parent="1" source="Tm68IXBXo0wMLcD9ASqz-1" target="i7obDoPKxP2swXrJQPVg-1">
          <mxGeometry relative="1" as="geometry">
            <mxPoint x="-263" y="-160" as="sourcePoint" />
            <mxPoint x="-230" y="15" as="targetPoint" />
          </mxGeometry>
        </mxCell>
        <mxCell id="i7obDoPKxP2swXrJQPVg-1" value="N" style="text;html=1;align=center;verticalAlign=middle;resizable=0;points=[];autosize=1;strokeColor=default;fillColor=none;fontFamily=Helvetica;fontSize=11;fontColor=default;labelBackgroundColor=default;" vertex="1" parent="1">
          <mxGeometry x="-242" y="-40" width="30" height="30" as="geometry" />
        </mxCell>
        <mxCell id="i7obDoPKxP2swXrJQPVg-12" value="" style="edgeStyle=orthogonalEdgeStyle;shape=link;rounded=0;orthogonalLoop=1;jettySize=auto;html=1;exitX=0.5;exitY=0;exitDx=0;exitDy=0;entryX=0.5;entryY=1;entryDx=0;entryDy=0;strokeColor=default;align=center;verticalAlign=middle;fontFamily=Helvetica;fontSize=11;fontColor=default;labelBackgroundColor=default;endArrow=none;endFill=0;" edge="1" parent="1" source="Tm68IXBXo0wMLcD9ASqz-2" target="i7obDoPKxP2swXrJQPVg-2">
          <mxGeometry relative="1" as="geometry">
            <mxPoint x="-337" y="170" as="sourcePoint" />
            <mxPoint x="-260" y="60" as="targetPoint" />
          </mxGeometry>
        </mxCell>
        <mxCell id="i7obDoPKxP2swXrJQPVg-2" value="1" style="text;html=1;align=center;verticalAlign=middle;resizable=0;points=[];autosize=1;strokeColor=default;fillColor=none;fontFamily=Helvetica;fontSize=11;fontColor=default;labelBackgroundColor=default;" vertex="1" parent="1">
          <mxGeometry x="-277" y="75" width="30" height="30" as="geometry" />
        </mxCell>
        <mxCell id="i7obDoPKxP2swXrJQPVg-13" value="" style="edgeStyle=orthogonalEdgeStyle;shape=connector;rounded=0;orthogonalLoop=1;jettySize=auto;html=1;exitX=0.75;exitY=1;exitDx=0;exitDy=0;entryX=1;entryY=0;entryDx=0;entryDy=0;strokeColor=default;align=center;verticalAlign=middle;fontFamily=Helvetica;fontSize=11;fontColor=default;labelBackgroundColor=default;endArrow=none;endFill=0;" edge="1" parent="1" source="Tm68IXBXo0wMLcD9ASqz-1" target="Tm68IXBXo0wMLcD9ASqz-84">
          <mxGeometry relative="1" as="geometry">
            <mxPoint x="-288" y="-160" as="sourcePoint" />
            <mxPoint x="-307" y="-85" as="targetPoint" />
          </mxGeometry>
        </mxCell>
        <mxCell id="Tm68IXBXo0wMLcD9ASqz-84" value="1" style="text;html=1;align=center;verticalAlign=middle;resizable=0;points=[];autosize=1;strokeColor=default;fillColor=none;fontFamily=Helvetica;fontSize=11;fontColor=default;labelBackgroundColor=default;" parent="1" vertex="1">
          <mxGeometry x="-320" y="-120" width="30" height="30" as="geometry" />
        </mxCell>
        <mxCell id="i7obDoPKxP2swXrJQPVg-14" value="" style="edgeStyle=orthogonalEdgeStyle;shape=link;rounded=0;orthogonalLoop=1;jettySize=auto;html=1;exitX=0.25;exitY=1;exitDx=0;exitDy=0;entryX=0;entryY=0;entryDx=0;entryDy=0;strokeColor=default;align=center;verticalAlign=middle;fontFamily=Helvetica;fontSize=11;fontColor=default;labelBackgroundColor=default;endArrow=none;endFill=0;" edge="1" parent="1" source="Tm68IXBXo0wMLcD9ASqz-1" target="Tm68IXBXo0wMLcD9ASqz-83">
          <mxGeometry relative="1" as="geometry">
            <mxPoint x="-338" y="-160" as="sourcePoint" />
            <mxPoint x="-367" y="-85" as="targetPoint" />
            <Array as="points">
              <mxPoint x="-355" y="-125" />
            </Array>
          </mxGeometry>
        </mxCell>
        <mxCell id="Tm68IXBXo0wMLcD9ASqz-83" value="N" style="text;html=1;align=center;verticalAlign=middle;resizable=0;points=[];autosize=1;strokeColor=default;fillColor=none;fontFamily=Helvetica;fontSize=11;fontColor=default;labelBackgroundColor=default;" parent="1" vertex="1">
          <mxGeometry x="-380" y="-125" width="30" height="30" as="geometry" />
        </mxCell>
        <mxCell id="i7obDoPKxP2swXrJQPVg-18" value="" style="edgeStyle=orthogonalEdgeStyle;rounded=0;orthogonalLoop=1;jettySize=auto;html=1;exitX=0.75;exitY=0;exitDx=0;exitDy=0;entryX=0;entryY=0.5;entryDx=0;entryDy=0;endArrow=none;endFill=0;" edge="1" parent="1" source="Tm68IXBXo0wMLcD9ASqz-1" target="i7obDoPKxP2swXrJQPVg-17">
          <mxGeometry relative="1" as="geometry">
            <mxPoint x="-288" y="-200" as="sourcePoint" />
            <mxPoint x="-150" y="-335" as="targetPoint" />
            <Array as="points">
              <mxPoint x="-240" y="-220" />
              <mxPoint x="-240" y="-335" />
            </Array>
          </mxGeometry>
        </mxCell>
        <mxCell id="i7obDoPKxP2swXrJQPVg-17" value="1" style="text;html=1;align=center;verticalAlign=middle;resizable=0;points=[];autosize=1;strokeColor=default;fillColor=none;fontFamily=Helvetica;fontSize=11;fontColor=default;labelBackgroundColor=default;" vertex="1" parent="1">
          <mxGeometry x="-200" y="-350" width="30" height="30" as="geometry" />
        </mxCell>
        <mxCell id="i7obDoPKxP2swXrJQPVg-20" value="" style="edgeStyle=orthogonalEdgeStyle;rounded=0;orthogonalLoop=1;jettySize=auto;html=1;exitX=0.25;exitY=0;exitDx=0;exitDy=0;entryX=1;entryY=0.5;entryDx=0;entryDy=0;endArrow=none;endFill=0;shape=link;" edge="1" parent="1" source="Tm68IXBXo0wMLcD9ASqz-3" target="i7obDoPKxP2swXrJQPVg-19">
          <mxGeometry relative="1" as="geometry">
            <mxPoint x="115" y="-180" as="sourcePoint" />
            <mxPoint x="-30" y="-335" as="targetPoint" />
          </mxGeometry>
        </mxCell>
        <mxCell id="i7obDoPKxP2swXrJQPVg-19" value="N" style="text;html=1;align=center;verticalAlign=middle;resizable=0;points=[];autosize=1;strokeColor=default;fillColor=none;fontFamily=Helvetica;fontSize=11;fontColor=default;labelBackgroundColor=default;" vertex="1" parent="1">
          <mxGeometry x="40" y="-350" width="30" height="30" as="geometry" />
        </mxCell>
        <mxCell id="i7obDoPKxP2swXrJQPVg-23" style="edgeStyle=orthogonalEdgeStyle;shape=link;rounded=0;orthogonalLoop=1;jettySize=auto;html=1;exitX=1;exitY=0.5;exitDx=0;exitDy=0;entryX=0.75;entryY=0;entryDx=0;entryDy=0;strokeColor=default;align=center;verticalAlign=middle;fontFamily=Helvetica;fontSize=11;fontColor=default;labelBackgroundColor=default;endArrow=none;endFill=0;" edge="1" parent="1" source="i7obDoPKxP2swXrJQPVg-28" target="Tm68IXBXo0wMLcD9ASqz-3">
          <mxGeometry relative="1" as="geometry" />
        </mxCell>
        <mxCell id="i7obDoPKxP2swXrJQPVg-21" value="TRABALHA_EM" style="shape=rhombus;perimeter=rhombusPerimeter;whiteSpace=wrap;html=1;align=center;fontFamily=Helvetica;fontSize=11;fontColor=default;labelBackgroundColor=default;" vertex="1" parent="1">
          <mxGeometry x="-150" y="-460" width="120" height="60" as="geometry" />
        </mxCell>
        <mxCell id="i7obDoPKxP2swXrJQPVg-25" value="" style="edgeStyle=orthogonalEdgeStyle;shape=link;rounded=0;orthogonalLoop=1;jettySize=auto;html=1;exitX=0.75;exitY=0;exitDx=0;exitDy=0;entryX=0;entryY=0.5;entryDx=0;entryDy=0;strokeColor=default;align=center;verticalAlign=middle;fontFamily=Helvetica;fontSize=11;fontColor=default;labelBackgroundColor=default;endArrow=none;endFill=0;" edge="1" parent="1" source="Tm68IXBXo0wMLcD9ASqz-1" target="i7obDoPKxP2swXrJQPVg-24">
          <mxGeometry relative="1" as="geometry">
            <mxPoint x="-288" y="-200" as="sourcePoint" />
            <mxPoint x="-150" y="-430" as="targetPoint" />
            <Array as="points">
              <mxPoint x="-305" y="-250" />
              <mxPoint x="-260" y="-250" />
              <mxPoint x="-260" y="-430" />
            </Array>
          </mxGeometry>
        </mxCell>
        <mxCell id="i7obDoPKxP2swXrJQPVg-24" value="N" style="text;html=1;align=center;verticalAlign=middle;resizable=0;points=[];autosize=1;strokeColor=default;fillColor=none;fontFamily=Helvetica;fontSize=11;fontColor=default;labelBackgroundColor=default;" vertex="1" parent="1">
          <mxGeometry x="-200" y="-445" width="30" height="30" as="geometry" />
        </mxCell>
        <mxCell id="i7obDoPKxP2swXrJQPVg-29" value="" style="edgeStyle=orthogonalEdgeStyle;shape=link;rounded=0;orthogonalLoop=1;jettySize=auto;html=1;exitX=1;exitY=0.5;exitDx=0;exitDy=0;entryX=0.75;entryY=0;entryDx=0;entryDy=0;strokeColor=default;align=center;verticalAlign=middle;fontFamily=Helvetica;fontSize=11;fontColor=default;labelBackgroundColor=default;endArrow=none;endFill=0;" edge="1" parent="1" source="i7obDoPKxP2swXrJQPVg-21" target="i7obDoPKxP2swXrJQPVg-28">
          <mxGeometry relative="1" as="geometry">
            <mxPoint x="-30" y="-430" as="sourcePoint" />
            <mxPoint x="165" y="-180" as="targetPoint" />
          </mxGeometry>
        </mxCell>
        <mxCell id="i7obDoPKxP2swXrJQPVg-28" value="N" style="text;html=1;align=center;verticalAlign=middle;resizable=0;points=[];autosize=1;strokeColor=default;fillColor=none;fontFamily=Helvetica;fontSize=11;fontColor=default;labelBackgroundColor=default;" vertex="1" parent="1">
          <mxGeometry x="-20" y="-440" width="30" height="30" as="geometry" />
        </mxCell>
      </root>
    </mxGraphModel>
  </diagram>
</mxfile>
